<?xml version="1.0" encoding="UTF-8" standalone="no"?>
<!DOCTYPE svg PUBLIC "-//W3C//DTD SVG 1.1//EN" "http://www.w3.org/Graphics/SVG/1.1/DTD/svg11.dtd">
<svg width="100%" height="100%" viewBox="0 0 602 542" version="1.1" xmlns="http://www.w3.org/2000/svg" xmlns:xlink="http://www.w3.org/1999/xlink" xml:space="preserve" xmlns:serif="http://www.serif.com/" style="fill-rule:evenodd;clip-rule:evenodd;stroke-linejoin:round;stroke-miterlimit:2;">
    <g transform="matrix(1,0,0,1,-62,-598)">
        <g transform="matrix(0.995218,0,0,1.0283,-13.8342,-90.9224)">
            <ellipse cx="364" cy="938.331" rx="238" ry="229.669" style="fill:rgb(221,221,220);stroke:rgb(45,75,184);stroke-width:12.35px;"/>
        </g>
        <g transform="matrix(0.515157,0,0,0.515157,-243.634,-284.593)">
            <path d="M964.11,1967.87L937.548,1967.87L937.548,2008.39C937.548,2014.19 936.181,2018.58 933.446,2021.58C930.712,2024.57 927.261,2026.07 923.095,2026.07C918.733,2026.07 915.217,2024.59 912.548,2021.63C909.879,2018.66 908.544,2014.32 908.544,2008.59L908.544,1898.24C908.544,1891.86 910.009,1887.3 912.938,1884.57C915.868,1881.83 920.523,1880.47 926.903,1880.47L964.11,1880.47C975.113,1880.47 983.576,1881.31 989.501,1883C995.36,1884.63 1000.42,1887.33 1004.69,1891.11C1008.95,1894.89 1012.19,1899.51 1014.4,1904.98C1016.62,1910.45 1017.72,1916.6 1017.72,1923.43C1017.72,1938.02 1013.23,1949.07 1004.25,1956.59C995.263,1964.11 981.884,1967.87 964.11,1967.87ZM957.079,1902.24L937.548,1902.24L937.548,1945.99L957.079,1945.99C963.915,1945.99 969.628,1945.28 974.218,1943.84C978.808,1942.41 982.307,1940.07 984.716,1936.81C987.125,1933.56 988.329,1929.29 988.329,1924.02C988.329,1917.7 986.474,1912.56 982.763,1908.59C978.596,1904.36 970.035,1902.24 957.079,1902.24Z" style="fill:rgb(0,193,60);fill-rule:nonzero;stroke:rgb(45,75,184);stroke-width:6.47px;"/>
            <path d="M1099.85,2011.03C1093.41,2016.05 1087.17,2019.81 1081.15,2022.31C1075.13,2024.82 1068.38,2026.07 1060.89,2026.07C1054.05,2026.07 1048.05,2024.72 1042.87,2022.02C1037.69,2019.32 1033.71,2015.65 1030.91,2011.03C1028.11,2006.41 1026.71,2001.4 1026.71,1995.99C1026.71,1988.7 1029.02,1982.48 1033.64,1977.34C1038.26,1972.2 1044.61,1968.75 1052.68,1966.99C1054.38,1966.6 1058.58,1965.72 1065.28,1964.35C1071.99,1962.99 1077.73,1961.73 1082.52,1960.59C1087.3,1959.45 1092.5,1958.07 1098.1,1956.44C1097.77,1949.41 1096.35,1944.25 1093.85,1940.96C1091.34,1937.68 1086.15,1936.03 1078.27,1936.03C1071.5,1936.03 1066.4,1936.98 1062.99,1938.86C1059.57,1940.75 1056.64,1943.58 1054.2,1947.36C1051.76,1951.14 1050.03,1953.63 1049.02,1954.83C1048.01,1956.04 1045.85,1956.64 1042.53,1956.64C1039.53,1956.64 1036.95,1955.68 1034.77,1953.76C1032.58,1951.84 1031.49,1949.38 1031.49,1946.38C1031.49,1941.7 1033.15,1937.14 1036.47,1932.71C1039.79,1928.28 1044.97,1924.64 1052,1921.77C1059.03,1918.91 1067.79,1917.48 1078.27,1917.48C1089.99,1917.48 1099.2,1918.86 1105.91,1921.63C1112.61,1924.39 1117.35,1928.77 1120.12,1934.76C1122.88,1940.75 1124.27,1948.69 1124.27,1958.59C1124.27,1964.84 1124.25,1970.15 1124.22,1974.51C1124.18,1978.87 1124.14,1983.72 1124.07,1989.06C1124.07,1994.07 1124.9,1999.3 1126.56,2004.73C1128.22,2010.17 1129.05,2013.67 1129.05,2015.23C1129.05,2017.97 1127.77,2020.46 1125.19,2022.7C1122.62,2024.95 1119.71,2026.07 1116.45,2026.07C1113.72,2026.07 1111.02,2024.79 1108.35,2022.21C1105.68,2019.64 1102.85,2015.91 1099.85,2011.03ZM1098.1,1972.46C1094.19,1973.89 1088.51,1975.4 1081.05,1977C1073.6,1978.59 1068.44,1979.77 1065.58,1980.51C1062.71,1981.26 1059.98,1982.73 1057.37,1984.91C1054.77,1987.09 1053.47,1990.13 1053.47,1994.04C1053.47,1998.08 1055,2001.51 1058.06,2004.34C1061.12,2007.17 1065.12,2008.59 1070.07,2008.59C1075.34,2008.59 1080.21,2007.43 1084.67,2005.12C1089.13,2002.81 1092.4,1999.83 1094.48,1996.19C1096.89,1992.15 1098.1,1985.51 1098.1,1976.27L1098.1,1972.46Z" style="fill:rgb(0,193,60);fill-rule:nonzero;stroke:rgb(45,75,184);stroke-width:6.47px;"/>
            <path d="M1177.78,1987.59L1177.78,2009.86C1177.78,2015.26 1176.51,2019.32 1173.97,2022.02C1171.43,2024.72 1168.21,2026.07 1164.31,2026.07C1160.46,2026.07 1157.31,2024.7 1154.83,2021.97C1152.36,2019.24 1151.12,2015.2 1151.12,2009.86L1151.12,1935.64C1151.12,1923.66 1155.45,1917.67 1164.11,1917.67C1168.54,1917.67 1171.73,1919.07 1173.68,1921.87C1175.63,1924.67 1176.71,1928.81 1176.9,1934.27C1180.09,1928.81 1183.37,1924.67 1186.72,1921.87C1190.07,1919.07 1194.55,1917.67 1200.14,1917.67C1205.74,1917.67 1211.18,1919.07 1216.45,1921.87C1221.73,1924.67 1224.36,1928.38 1224.36,1933C1224.36,1936.26 1223.24,1938.94 1221,1941.06C1218.75,1943.18 1216.32,1944.24 1213.72,1944.24C1212.74,1944.24 1210.38,1943.63 1206.64,1942.43C1202.9,1941.22 1199.59,1940.62 1196.73,1940.62C1192.82,1940.62 1189.63,1941.65 1187.16,1943.7C1184.68,1945.75 1182.76,1948.79 1181.39,1952.83C1180.03,1956.87 1179.08,1961.67 1178.56,1967.23C1178.04,1972.8 1177.78,1979.59 1177.78,1987.59Z" style="fill:rgb(0,193,60);fill-rule:nonzero;stroke:rgb(45,75,184);stroke-width:6.47px;"/>
            <path d="M1262.74,1987.59L1262.74,2009.86C1262.74,2015.26 1261.47,2019.32 1258.93,2022.02C1256.39,2024.72 1253.17,2026.07 1249.27,2026.07C1245.42,2026.07 1242.27,2024.7 1239.79,2021.97C1237.32,2019.24 1236.08,2015.2 1236.08,2009.86L1236.08,1935.64C1236.08,1923.66 1240.41,1917.67 1249.07,1917.67C1253.5,1917.67 1256.69,1919.07 1258.64,1921.87C1260.6,1924.67 1261.67,1928.81 1261.86,1934.27C1265.05,1928.81 1268.33,1924.67 1271.68,1921.87C1275.03,1919.07 1279.51,1917.67 1285.11,1917.67C1290.7,1917.67 1296.14,1919.07 1301.41,1921.87C1306.69,1924.67 1309.33,1928.38 1309.33,1933C1309.33,1936.26 1308.2,1938.94 1305.96,1941.06C1303.71,1943.18 1301.29,1944.24 1298.68,1944.24C1297.7,1944.24 1295.34,1943.63 1291.6,1942.43C1287.86,1941.22 1284.55,1940.62 1281.69,1940.62C1277.78,1940.62 1274.59,1941.65 1272.12,1943.7C1269.64,1945.75 1267.72,1948.79 1266.36,1952.83C1264.99,1956.87 1264.05,1961.67 1263.52,1967.23C1263,1972.8 1262.74,1979.59 1262.74,1987.59Z" style="fill:rgb(0,193,60);fill-rule:nonzero;stroke:rgb(45,75,184);stroke-width:6.47px;"/>
            <path d="M1348.49,2029.39L1350.93,2023.43L1318.11,1940.82C1316.1,1936.06 1315.09,1932.61 1315.09,1930.47C1315.09,1928.19 1315.67,1926.07 1316.85,1924.12C1318.02,1922.16 1319.63,1920.6 1321.68,1919.43C1323.73,1918.26 1325.86,1917.67 1328.08,1917.67C1331.92,1917.67 1334.81,1918.89 1336.77,1921.34C1338.72,1923.78 1340.44,1927.28 1341.94,1931.83L1364.5,1997.46L1385.89,1936.42C1387.58,1931.48 1389.11,1927.6 1390.48,1924.8C1391.85,1922 1393.29,1920.11 1394.82,1919.14C1396.35,1918.16 1398.52,1917.67 1401.32,1917.67C1403.34,1917.67 1405.27,1918.21 1407.13,1919.28C1408.98,1920.36 1410.42,1921.81 1411.42,1923.63C1412.43,1925.45 1412.94,1927.37 1412.94,1929.39C1412.68,1930.63 1412.26,1932.39 1411.67,1934.66C1411.08,1936.94 1410.37,1939.25 1409.52,1941.6L1374.76,2032.61C1371.76,2040.62 1368.83,2046.9 1365.97,2051.46C1363.1,2056.02 1359.31,2059.52 1354.59,2061.96C1349.87,2064.4 1343.51,2065.62 1335.5,2065.62C1327.68,2065.62 1321.83,2064.78 1317.92,2063.08C1314.01,2061.39 1312.06,2058.3 1312.06,2053.8C1312.06,2050.74 1312.99,2048.39 1314.84,2046.73C1316.7,2045.07 1319.45,2044.24 1323.1,2044.24C1324.53,2044.24 1325.93,2044.43 1327.29,2044.82C1328.99,2045.21 1330.45,2045.41 1331.69,2045.41C1334.75,2045.41 1337.16,2044.95 1338.91,2044.04C1340.67,2043.13 1342.25,2041.55 1343.65,2039.3C1345.05,2037.06 1346.66,2033.75 1348.49,2029.39Z" style="fill:rgb(0,193,60);fill-rule:nonzero;stroke:rgb(45,75,184);stroke-width:6.47px;"/>
        </g>
        <g transform="matrix(11.3108,0,0,9.28125,-9902.91,-14133.2)">
            <rect x="908.563" y="1611.91" width="10.925" height="9.449" style="fill:rgb(0,193,60);stroke:black;stroke-width:1.21px;"/>
        </g>
        <g transform="matrix(9,0,0,9,-7783.46,-13677.2)">
            <path d="M885.827,1606.3L885.827,1629.92L897.638,1641.73C899.427,1642.15 901.735,1642.38 903.937,1642.39C905.732,1642.39 907.71,1642.15 909.449,1641.73L921.26,1629.92L921.26,1606.3L903.543,1612.2L885.827,1606.3Z" style="fill:rgb(28,144,148);"/>
        </g>
        <g transform="matrix(0.784615,0,0,0.784615,70.8207,192.974)">
            <path d="M353.81,816L353.81,1028L421.549,1154.01L557.029,1018.53L557.029,747.568L353.81,816Z" style="fill:rgb(10,160,166);"/>
        </g>
        <g transform="matrix(0.784615,0,0,0.784615,70.8207,192.974)">
            <path d="M557.029,831.37L354.331,931.126L354.331,992.126L557.029,888.638L557.029,831.37Z" style="fill:rgb(0,211,63);"/>
        </g>
        <g transform="matrix(9,0,0,9,-7783.46,-13677.2)">
            <path d="M885.827,1606.3L885.827,1629.92L897.113,1642.13C900.836,1642.9 906.031,1642.92 908.661,1642.55C908.8,1642.53 909.719,1642.28 909.843,1642.26C910.231,1642.19 909.493,1642.08 909.711,1642L910.216,1641.86L921.26,1629.92L921.26,1606.3L903.543,1612.2L885.827,1606.3Z" style="fill:none;stroke:rgb(45,75,184);stroke-width:1.39px;stroke-linecap:round;stroke-miterlimit:1.5;"/>
        </g>
        <g transform="matrix(9,0,0,9,-7783.46,-13677.2)">
            <path d="M886.27,1618.41L886.27,1624.9L900.591,1611.76L895.571,1609.99L886.27,1618.41Z" style="fill:rgb(0,193,60);"/>
        </g>
        <g transform="matrix(9,0,0,9,-7783.46,-13677.2)">
            <path d="M897.638,1641.73L903.543,1629.92L909.449,1641.73" style="fill:none;stroke:rgb(45,75,184);stroke-width:1.39px;stroke-linecap:round;stroke-miterlimit:1.5;"/>
        </g>
        <g transform="matrix(9,0,0,9,-7783.46,-13677.2)">
            <path d="M903.543,1612.2L903.543,1629.92" style="fill:none;stroke:rgb(45,75,184);stroke-width:1.39px;stroke-linecap:round;stroke-miterlimit:1.5;"/>
        </g>
        <g transform="matrix(9,0,0,9,-7783.46,-13677.2)">
            <path d="M885.974,1617.96L895.276,1609.55" style="fill:none;stroke:rgb(45,75,184);stroke-width:1.39px;"/>
        </g>
        <g transform="matrix(9,0,0,9,-7783.46,-13677.2)">
            <path d="M885.974,1625.79L901.476,1611.61" style="fill:none;stroke:rgb(45,75,184);stroke-width:1.39px;stroke-linecap:round;"/>
        </g>
        <g transform="matrix(0.784615,0,0,0.784615,70.8207,192.974)">
            <path d="M354.331,992.126L557.029,888.638" style="fill:none;stroke:rgb(45,75,184);stroke-width:15.93px;"/>
        </g>
        <g transform="matrix(0.784615,0,0,0.784615,70.4119,145.112)">
            <path d="M354.331,992.126L557.55,892.37" style="fill:none;stroke:rgb(45,75,184);stroke-width:15.93px;"/>
        </g>
    </g>
</svg>
